/* XPM */
static const char *lastfm_black_xpm[] = {
/* columns rows colors chars-per-pixel */
"80 28 128 2",
"   c #CCCCCC",
".  c #444444",
"X  c #474747",
"o  c #4C4C4C",
"O  c #414141",
"+  c #060606",
"@  c #3F3F3F",
"#  c #494949",
"$  c #0E0E0E",
"%  c #0B0B0B",
"&  c #080808",
"*  c #030303",
"=  c #343434",
"-  c #3C3C3C",
";  c #373737",
":  c #393939",
">  c #262626",
",  c #232323",
"<  c #292929",
"1  c #1E1E1E",
"2  c #101010",
"3  c #1B1B1B",
"4  c #212121",
"5  c #181818",
"6  c #313131",
"7  c #131313",
"8  c #161616",
"9  c #2E2E2E",
"0  c #2C2C2C",
"q  c #A4A4A4",
"w  c #C2C2C2",
"e  c #9E9E9E",
"r  c #A5A5A5",
"t  c #A0A0A0",
"y  c #7F7F7F",
"u  c #A2A2A2",
"i  c #747474",
"p  c #282828",
"a  c #868686",
"s  c #6E6E6E",
"d  c #4A4A4A",
"f  c #757575",
"g  c #333333",
"h  c #454545",
"j  c #B8B8B8",
"k  c #C1C1C1",
"l  c #4D4D4D",
"z  c #B5B5B5",
"x  c #A1A1A1",
"c  c #6B6B6B",
"v  c #A3A3A3",
"b  c #565656",
"n  c #1F1F1F",
"m  c #ADADAD",
"M  c #575757",
"N  c #717171",
"B  c #727272",
"V  c #707070",
"C  c #505050",
"Z  c #525252",
"A  c #929292",
"S  c #AEAEAE",
"D  c #9B9B9B",
"F  c #1C1C1C",
"G  c #A7A7A7",
"H  c #9A9A9A",
"J  c #878787",
"K  c #8C8C8C",
"L  c #797979",
"P  c #5C5C5C",
"I  c #484848",
"U  c #7B7B7B",
"Y  c #777777",
"T  c #2F2F2F",
"R  c #3B3B3B",
"E  c #5A5A5A",
"W  c #787878",
"Q  c #A9A9A9",
"!  c #828282",
"~  c #383838",
"^  c #4B4B4B",
"/  c #545454",
"(  c #949494",
")  c #606060",
"_  c #404040",
"`  c #7C7C7C",
"'  c #626262",
"]  c #676767",
"[  c #6F6F6F",
"{  c #9F9F9F",
"}  c #C0C0C0",
"|  c #585858",
" . c #B6B6B6",
".. c #5E5E5E",
"X. c #A8A8A8",
"o. c #A6A6A6",
"O. c #BABABA",
"+. c #808080",
"@. c #999999",
"#. c #C3C3C3",
"$. c #616161",
"%. c #737373",
"&. c #515151",
"*. c #696969",
"=. c #888888",
"-. c #5B5B5B",
";. c #B9B9B9",
":. c #8F8F8F",
">. c #3A3A3A",
",. c #979797",
"<. c #555555",
"1. c #AAAAAA",
"2. c #636363",
"3. c #7E7E7E",
"4. c #8B8B8B",
"5. c #303030",
"6. c #424242",
"7. c #2D2D2D",
"8. c #8A8A8A",
"9. c #646464",
"0. c None",
"q. c #000000",
"w. c #000000",
"e. c #000000",
"r. c #000000",
"t. c #000000",
"y. c #000000",
"u. c #000000",
/* pixels */
"0.o o o o o o o o o o o o o o o o o o o o o o o o o o o o o o o o o o o o o o o o o o o o o o o o o o o o o o o o o o o o o o o o o o o o o o o o o o o o o o 0.",
"# # # # # # # # # # # # # # # # # # # # # # # # # # # # # # # # # # # # # # # # # # # # # # # # # # # # # # # # # # # # # # # # # # # # # # # # # # # # # # # # ",
"X X X X X X X X X X X X X X X X X X X X X X X X X X X X X X X X X X X X X X X X X X X X X X X X X X X X X X X X X X X X X X X X X X X X X X X X X X X X X X X X ",
". . . . . . . . . . . . . . . . . . . . . . . . . . . . . . . . . . . . . . . . . . . . . . . . . . . . . . . . . . . . . . . . . . . . . . . . . . . . . . . . ",
"O O O O O O O O O O O O O O O O O O O O O O O O O O O O O O O O O O O O O O O O O O O O O O O O O O O O O O O O O O O O O O O O O O O O O O O O O O O O O O O O ",
"@ @ @ @ @ @ &.a a i @ @ @ @ @ @ @ @ @ @ @ @ @ @ @ @ @ @ @ @ @ @ @ @ @ @ @ @ @ @ @ @ @ @ @ @ @ @ @ @ @ @ I a Q Q t c @ @ @ @ @ @ @ @ @ @ @ @ @ @ @ @ @ @ @ @ @ @ ",
"- - - - - - )     X.- - - - - - - - - - - - - - - - - - - - - - - - - - - - - - - - - - - - - - - - - M #.        X.- - - - - - - - - - - - - - - - - - - - - - ",
": : : : : : ..    G : : : : : : : : : : : : : : : : : : : : : : : : : : : : <.6.: : : : : : : : : : : e     O.G O.4.: : : : : : : : : : : : : : : : : : : : : : ",
"; ; ; ; ; ; P     G ; ; ; ; ; ; ; ; ; ; ; ; ; ; ; ; ; ; ; ; ; ; ; ; ; ; !     P ; ; ; ; ; ; ; ; ; ; ;       _ ; ; d ; ; ; ; ; ; ; ; ; ; ; ; ; ; ; ; ; ; ; ; ; ; ",
"= = = = = = E     o.= = = = = = = = = = = = = = = = = = = = = = = = = = +.    E = = = = = = = = = = =     o.= = = = = = = = = = = = = = = = = = = = = = = = = = ",
"6 6 6 6 6 6 |     r 6 6 6 6 6 c A r r D f R 6 6 6 6 R f r r r =.. 6 . y r     A y y c 6 6 6 6 6 6 c y     ;.y y c . y y . . A r r f 6 6 ' D r D ' 6 6 6 6 6 6 6 ",
"9 9 9 9 9 9 b     q 9 9 9 ~ S             w o 9 9 o w             b b               q 9 9 9 9 9 9 q             q b     %.w         J J           *.9 9 9 9 9 9 ",
"0 0 0 0 0 0 /     q 0 0 0 q     w a ` j     w _ 0 H     H ` H     S d q j     S q q a 0 0 0 0 0 0 a q     w q q a /     w   q j         w q w     j 0 0 0 0 0 0 ",
"< < < < < < Z     v < < I     w g < < < @.    :.< w   m < < < j v v < < U     Z < < < < < < < < < < <     v < < < Z       Z < < m     j g < I       < < < < < < ",
"> > > > > > C     u > > L     [ > > > > R     w 5.w     9.> > > > > > > L     C > > > > > > > > > > >     u > > > C     m > > > L     [ > > > m     > > > > > > ",
", , , , , , l     u , , u     l , , , , , ,.    | K         u ! ~ , , , W     l , , , , , , , , , , ,     u , , , l     K , , , W     l , , , u     , , , , , , ",
"4 4 4 4 4 4 o     x 4 4 x     o 4 4 4 4 4 $.    K 0 x           k O 4 4 Y     o 4 4 4 4 4 4 4 4 4 4 4     x 4 4 4 o     Y 4 4 4 Y     o 4 4 4 x     4 4 4 4 4 4 ",
"1 1 1 1 1 1 d     t 1 1 t     d 1 1 1 1 1 <     k < 1 = ) 8.k      .1 1 f     d 1 1 1 1 1 1 1 1 1 1 1     t 1 1 1 d     f 1 1 1 f     d 1 1 1 t     1 1 1 1 1 1 ",
"3 3 3 3 3 3 X     t 3 3 i     3.3 3 3 3 3 > (     i 3 3 3 3 >  .    3 3 i     X 3 3 3 3 3 X i ..3 3 3     t 3 3 3 X     i 3 3 3 i     X 3 3 3 t     3 3 3 3 3 3 ",
"5 5 5 5 5 5 h     z h T h       C 5 5 T 1.B h       ] 5 5 5 , z     5 5 B     ( 5 T ] 5 >.      P 5 5     { 5 5 5 h     B 5 5 5 B     h 5 5 5 {     5 5 5 5 5 5 ",
"8 8 8 8 8 8 7.        N 8 e       z z     z 8 J       k e e       e 8 8 -.          k 8 .       N 8 8     e 8 8 8 .     N 8 8 8 N     . 8 8 8 e     8 8 8 8 8 8 ",
"7 7 7 7 7 7 7 U       V 7 n A             U 7 7 V }             e n 7 7 7 e           n n }     O 7 7     e 7 7 7 O     V 7 7 7 V     O 7 7 7 e     7 7 7 7 7 7 ",
"2 2 2 2 2 2 2 2 g 2.@ p 2 2 2 p M s s ^ F 2 2 2 2 2 @ s s s M g 2 2 2 2 2 2 ^ s s M p 2 2 p @ p 2 2 2 @ @ g 2 2 2 F @ @ p 2 2 2 p @ @ F 2 2 2 g @ @ 2 2 2 2 2 2 ",
"$ $ $ $ $ $ $ $ $ $ $ $ $ $ $ $ $ $ $ $ $ $ $ $ $ $ $ $ $ $ $ $ $ $ $ $ $ $ $ $ $ $ $ $ $ $ $ $ $ $ $ $ $ $ $ $ $ $ $ $ $ $ $ $ $ $ $ $ $ $ $ $ $ $ $ $ $ $ $ $ ",
"% % % % % % % % % % % % % % % % % % % % % % % % % % % % % % % % % % % % % % % % % % % % % % % % % % % % % % % % % % % % % % % % % % % % % % % % % % % % % % % % ",
"& & & & & & & & & & & & & & & & & & & & & & & & & & & & & & & & & & & & & & & & & & & & & & & & & & & & & & & & & & & & & & & & & & & & & & & & & & & & & & & & ",
"* + + + + + + + + + + + + + + + + + + + + + + + + + + + + + + + + + + + + + + + + + + + + + + + + + + + + + + + + + + + + + + + + + + + + + + + + + + + + + + + ",
"0.* * * * * * * * * * * * * * * * * * * * * * * * * * * * * * * * * * * * * * * * * * * * * * * * * * * * * * * * * * * * * * * * * * * * * * * * * * * * + + 0."
};
