/* XPM */
static const char *lastfm_red_xpm[] = {
/* columns rows colors chars-per-pixel */
"80 28 256 2",
"   c #FFFFFF",
".  c #D21108",
"X  c #DE473F",
"o  c #D3150D",
"O  c #DC4038",
"+  c #D10C04",
"@  c #DD453C",
"#  c #D2130A",
"$  c #DD423A",
"%  c #D10F06",
"&  c #DE4941",
"*  c #DC3E36",
"=  c #DB3C33",
"-  c #DA352D",
";  c #DA372F",
":  c #DB3931",
">  c #D72A21",
",  c #D52118",
"<  c #D3180F",
"1  c #D6231A",
"2  c #D7271F",
"3  c #D6251D",
"4  c #D82C23",
"5  c #D41E16",
"6  c #D9332A",
"7  c #D41A11",
"8  c #D41C13",
"9  c #D93028",
"0  c #D82E26",
"q  c #F5CBC9",
"w  c #DE524B",
"e  c #F5CCCA",
"r  c #F5C8C6",
"t  c #EC9995",
"y  c #FDF2F1",
"u  c #EA8D88",
"i  c #D9352D",
"p  c #E98C87",
"a  c #DF5650",
"s  c #F4C6C4",
"d  c #EA908C",
"f  c #E05952",
"g  c #E15D57",
"h  c #F4C7C5",
"j  c #F5C9C7",
"k  c #E05A53",
"l  c #DE4D45",
"z  c #FAE5E4",
"x  c #E05C56",
"c  c #FCF1F0",
"v  c #FAE3E2",
"b  c #F4C6C3",
"n  c #EA8E89",
"m  c #DB433C",
"M  c #E2615A",
"N  c #F5CAC8",
"B  c #D72820",
"V  c #EA8F8B",
"C  c #EEA3A0",
"Z  c #E7807A",
"A  c #E3645E",
"S  c #F6CDCB",
"D  c #EE9F9B",
"F  c #EB928E",
"G  c #FDF2F2",
"H  c #F1B2AF",
"J  c #E15F59",
"K  c #E46F69",
"L  c #F3BDBB",
"P  c #EB918D",
"I  c #DF534D",
"U  c #DF554E",
"Y  c #D93A33",
"T  c #FCF1F1",
"R  c #D6261E",
"E  c #EB9590",
"W  c #FAE3E1",
"Q  c #F3BFBC",
"!  c #F5CAC7",
"~  c #F7D7D5",
"^  c #DA3931",
"/  c #E1605A",
"(  c #E36862",
")  c #FCF2F1",
"_  c #F6CCCA",
"`  c #D82F26",
"'  c #F6CECC",
"]  c #D93128",
"[  c #FAE6E5",
"{  c #EEA4A1",
"}  c #DF544C",
"|  c #F0AEAB",
" . c #E98883",
".. c #E5736D",
"X. c #EC9A96",
"o. c #E2625C",
"O. c #E7817C",
"+. c #EB938F",
"@. c #F8D7D6",
"#. c #FAE5E3",
"$. c #E46B65",
"%. c #E05750",
"&. c #F6CFCD",
"*. c #DB4037",
"=. c #F8D8D6",
"-. c #EC9793",
";. c #E36963",
":. c #DC443C",
">. c #FDF3F2",
",. c #E46D66",
"<. c #DC423B",
"1. c #F3BDBA",
"2. c #E25E58",
"3. c #E0564F",
"4. c #E77E79",
"5. c #DD4841",
"6. c #E57772",
"7. c #EA8B86",
"8. c #EC9691",
"9. c #E4736E",
"0. c #F4C1BE",
"q. c #E57670",
"w. c #EFAAA6",
"e. c #EDA09D",
"r. c #DF554F",
"t. c #D72C25",
"y. c #E3665F",
"u. c #F2B9B7",
"i. c #DE4E48",
"p. c #F0ACA9",
"a. c #E26159",
"s. c #E77B75",
"d. c #ED9B97",
"f. c #F0B0AC",
"g. c #E5756F",
"h. c #DF5049",
"j. c #E98782",
"k. c #E1655F",
"l. c #E4716C",
"z. c #ED9D9A",
"x. c #EFA8A5",
"c. c #DE4A43",
"v. c #F2B8B6",
"b. c #DC453D",
"n. c #D9332B",
"m. c #EEA5A1",
"M. c #F4C2C0",
"N. c #DD453E",
"B. c #DB3F37",
"V. c #F0ADAA",
"C. c #D93831",
"Z. c #E67D78",
"A. c #F7D5D3",
"S. c #E67A75",
"D. c #ED9A96",
"F. c #DB3D35",
"G. c #F8D8D7",
"H. c #F2BBB9",
"J. c #F2B7B4",
"K. c #DC4842",
"L. c None",
"P. c #000000",
"I. c #000000",
"U. c #000000",
"Y. c #000000",
"T. c #000000",
"R. c #000000",
"E. c #000000",
"W. c #000000",
"Q. c #000000",
"!. c #000000",
"~. c #000000",
"^. c #000000",
"/. c #000000",
"(. c #000000",
"). c #000000",
"_. c #000000",
"`. c #000000",
"'. c #000000",
"]. c #000000",
"[. c #000000",
"{. c #000000",
"}. c #000000",
"|. c #000000",
" X c #000000",
".X c #000000",
"XX c #000000",
"oX c #000000",
"OX c #000000",
"+X c #000000",
"@X c #000000",
"#X c #000000",
"$X c #000000",
"%X c #000000",
"&X c #000000",
"*X c #000000",
"=X c #000000",
"-X c #000000",
";X c #000000",
":X c #000000",
">X c #000000",
",X c #000000",
"<X c #000000",
"1X c #000000",
"2X c #000000",
"3X c #000000",
"4X c #000000",
"5X c #000000",
"6X c #000000",
"7X c #000000",
"8X c #000000",
"9X c #000000",
"0X c #000000",
"qX c #000000",
"wX c #000000",
"eX c #000000",
"rX c #000000",
"tX c #000000",
"yX c #000000",
"uX c #000000",
"iX c #000000",
"pX c #000000",
"aX c #000000",
"sX c #000000",
"dX c #000000",
"fX c #000000",
"gX c #000000",
"hX c #000000",
"jX c #000000",
"kX c #000000",
"lX c #000000",
"zX c #000000",
"xX c #000000",
"cX c #000000",
"vX c #000000",
"bX c #000000",
"nX c #000000",
"mX c #000000",
"MX c #000000",
"NX c #000000",
"BX c #000000",
"VX c #000000",
"CX c #000000",
"ZX c #000000",
"AX c #000000",
"SX c #000000",
"DX c #000000",
"FX c #000000",
"GX c #000000",
"HX c #000000",
"JX c #000000",
"KX c #000000",
"LX c #000000",
"PX c #000000",
"IX c #000000",
"UX c #000000",
/* pixels */
"L.& & & & & & & & & & & & & & & & & & & & & & & & & & & & & & & & & & & & & & & & & & & & & & & & & & & & & & & & & & & & & & & & & & & & & & & & & & & & & & L.",
"X X X X X X X X X X X X X X X X X X X X X X X X X X X X X X X X X X X X X X X X X X X X X X X X X X X X X X X X X X X X X X X X X X X X X X X X X X X X X X X X ",
"@ @ @ @ @ @ @ @ @ @ @ @ @ @ @ @ @ @ @ @ @ @ @ @ @ @ @ @ @ @ @ @ @ @ @ @ @ @ @ @ @ @ @ @ @ @ @ @ @ @ @ @ @ @ @ @ @ @ @ @ @ @ @ @ @ @ @ @ @ @ @ @ @ @ @ @ @ @ @ @ ",
"$ $ $ $ $ $ $ $ $ $ $ $ $ $ $ $ $ $ $ $ $ $ $ $ $ $ $ $ $ $ $ $ $ $ $ $ $ $ $ $ $ $ $ $ $ $ $ $ $ $ $ $ $ $ $ $ $ $ $ $ $ $ $ $ $ $ $ $ $ $ $ $ $ $ $ $ $ $ $ $ ",
"O O O O O O O O O O O O O O O O O O O O O O O O O O O O O O O O O O O O O O O O O O O O O O O O O O O O O O O O O O O O O O O O O O O O O O O O O O O O O O O O ",
"* * * * * * 3.D D j.* * * * * * * * * * * * * * * * * * * * * * * * * * * * * * * * * * * * * * * * * * c.D &.&.M.s.* * * * * * * * * * * * * * * * * * * * * * ",
"= = = = = = ,.    ' = = = = = = = = = = = = = = = = = = = = = = = = = = = = = = = = = = = = = = = = = a.>.        ' = = = = = = = = = = = = = = = = = = = = = = ",
": : : : : : $.    S : : : : : : : : : : : : : : : : : : : : : : : : : : : : 2.N.: : : : : : : : : : : 0.    [ S [ x.: : : : : : : : : : : : : : : : : : : : : : ",
"; ; ; ; ; ; ;.    S ; ; ; ; ; ; ; ; ; ; ; ; ; ; ; ; ; ; ; ; ; ; ; ; ; ; d.    ;.; ; ; ; ; ; ; ; ; ; ;       :.; ; h.; ; ; ; ; ; ; ; ; ; ; ; ; ; ; ; ; ; ; ; ; ; ",
"- - - - - - (     _ - - - - - - - - - - - - - - - - - - - - - - - - - - D.    ( - - - - - - - - - - -     _ - - - - - - - - - - - - - - - - - - - - - - - - - - ",
"6 6 6 6 6 6 y.    e 6 6 6 6 6 Z H e e Q u *.6 6 6 6 *.u e e e m.l 6 l t e     H t t Z 6 6 6 6 6 6 Z t     z t t Z l t t l l H e e u 6 6 ..Q e Q ..6 6 6 6 6 6 6 ",
"9 9 9 9 9 9 A     q 9 9 9 F.G.            G %.9 9 %.G             A A               q 9 9 9 9 9 9 q             q A     7.G         { {           4.9 9 9 9 9 9 ",
"0 0 0 0 0 0 o.    q 0 0 0 q     y C -.z     y 5.0 L     L -.L     =.r.q z     =.q q C 0 0 0 0 0 0 C q     y q q C o.    y   q z         y q y     z 0 0 0 0 0 0 ",
"4 4 4 4 4 4 M     N 4 4 }     y ^ 4 4 4 1.    f.4 y   @.4 4 4 #.N N 4 4 8.    M 4 4 4 4 4 4 4 4 4 4 4     N 4 4 4 M       M 4 4 @.    #.^ 4 }       4 4 4 4 4 4 ",
"> > > > > > J     ! > > E      .> > > > b.    ) ; )     S.> > > > > > > E     J > > > > > > > > > > >     ! > > > J     ~ > > > E      .> > > ~     > > > > > > ",
"2 2 2 2 2 2 g     j 2 2 j     g 2 2 2 2 2 H.    $.|         j e.<.2 2 2 +.    g 2 2 2 2 2 2 2 2 2 2 2     j 2 2 2 g     | 2 2 2 +.    g 2 2 2 j     2 2 2 2 2 2 ",
"3 3 3 3 3 3 x     r 3 3 r     x 3 3 3 3 3 6.    V.n.r           T i.3 3 F     x 3 3 3 3 3 3 3 3 3 3 3     r 3 3 3 x     F 3 3 3 F     x 3 3 3 r     3 3 3 3 3 3 ",
"1 1 1 1 1 1 k     r 1 1 r     k 1 1 1 1 1 ]     T ] 1 B.q.p.T     v 1 1 P     k 1 1 1 1 1 1 1 1 1 1 1     r 1 1 1 k     P 1 1 1 P     k 1 1 1 r     1 1 1 1 1 1 ",
", , , , , , f     h , , d     z., , , , , ` u.    d , , , , ` v     , , d     f , , , , , f d g., , ,     h , , , f     d , , , d     f , , , h     , , , , , , ",
"5 5 5 5 5 5 a     v a Y a       k.5 5 Y A.V a       O.5 5 5 t.v     5 5 V     v.5 Y O.5 K.      9.5 5     h 5 5 5 a     V 5 5 5 V     a 5 5 5 h     5 5 5 5 5 5 ",
"8 8 8 8 8 8 C.        n 8 s       W W     W 8 w.      c s s       s 8 8 l.          c 8 U       n 8 8     s 8 8 8 U     n 8 8 8 n     U 8 8 8 s     8 8 8 8 8 8 ",
"7 7 7 7 7 7 7 X.      u 7 B J.            X.7 7 u c             b B 7 7 7 b           B B c     I 7 7     b 7 7 7 I     u 7 7 7 u     I 7 7 7 b     7 7 7 7 7 7 ",
"< < < < < < < < m Z.w i < < < i K p p / R < < < < < w p p p K m < < < < < < / p p K i < < i w i < < < w w m < < < R w w i < < < i w w R < < < m w w < < < < < < ",
"o o o o o o o o o o o o o o o o o o o o o o o o o o o o o o o o o o o o o o o o o o o o o o o o o o o o o o o o o o o o o o o o o o o o o o o o o o o o o o o o ",
"# # # # # # # # # # # # # # # # # # # # # # # # # # # # # # # # # # # # # # # # # # # # # # # # # # # # # # # # # # # # # # # # # # # # # # # # # # # # # # # # ",
". . . . . . . . . . . . . . . . . . . . . . . . . . . . . . . . . . . . . . . . . . . . . . . . . . . . . . . . . . . . . . . . . . . . . . . . . . . . . . . . ",
"+ % % % % % % % % % % % % % % % % % % % % % % % % % % % % % % % % % % % % % % % % % % % % % % % % % % % % % % % % % % % % % % % % % % % % % % % % % % % % % % + ",
"L.+ + + + + + + + + + + + + + + + + + + + + + + + + + + + + + + + + + + + + + + + + + + + + + + + + + + + + + + + + + + + + + + + + + + + + + + + + + + + + + L."
};
