/* XPM */
static const char * stamps_32x32_xpm[] = {
"32 32 129 2",
"  	c None",
". 	c #000000",
"+ 	c #FFFFFF",
"@ 	c #6F375F",
"# 	c #703860",
"$ 	c #703760",
"% 	c #7A466A",
"& 	c #D2BECB",
"* 	c #885979",
"= 	c #70385F",
"- 	c #733961",
"; 	c #743962",
"> 	c #743A61",
", 	c #733962",
"' 	c #CCB6C5",
") 	c #E3D7E0",
"! 	c #BA9DB1",
"~ 	c #743961",
"{ 	c #793C64",
"] 	c #AC87A0",
"^ 	c #7F4068",
"/ 	c #7F3F68",
"( 	c #A57895",
"_ 	c #E5D9E1",
": 	c #B590A7",
"< 	c #87436C",
"[ 	c #86446C",
"} 	c #CFAABE",
"| 	c #E7DAE2",
"1 	c #E7D9E2",
"2 	c #8E4871",
"3 	c #E8DAE3",
"4 	c #964D76",
"5 	c #E1CBD7",
"6 	c #EADBE4",
"7 	c #EADBE3",
"8 	c #E9D2DD",
"9 	c #9F517B",
"0 	c #C187A4",
"a 	c #EDDDE5",
"b 	c #E9D7E0",
"c 	c #456A42",
"d 	c #50744E",
"e 	c #A7557F",
"f 	c #A7567F",
"g 	c #3D6435",
"h 	c #B2C1AB",
"i 	c #406637",
"j 	c #456B3D",
"k 	c #AE5982",
"l 	c #AE5A82",
"m 	c #EFDEE6",
"n 	c #476D32",
"o 	c #476D31",
"p 	c #DAE2D6",
"q 	c #52763D",
"r 	c #B45D86",
"s 	c #F0DFE7",
"t 	c #55792C",
"u 	c #DDE4D5",
"v 	c #AFBF9B",
"w 	c #688836",
"x 	c #BC618B",
"y 	c #DFB5C8",
"z 	c #F2DFE8",
"A 	c #D090AE",
"B 	c #BB618B",
"C 	c #F3E0E9",
"D 	c #678727",
"E 	c #90A862",
"F 	c #E1E7D4",
"G 	c #C3658F",
"H 	c #C4658F",
"I 	c #F3D4E1",
"J 	c #779521",
"K 	c #789621",
"L 	c #CED9AF",
"M 	c #E4EAD3",
"N 	c #DEE5C8",
"O 	c #809C2D",
"P 	c #CB6993",
"Q 	c #CB6994",
"R 	c #EFCAD9",
"S 	c #F5E1E9",
"T 	c #87A21C",
"U 	c #87A21B",
"V 	c #9CB244",
"W 	c #E7ECD2",
"X 	c #E1E8C3",
"Y 	c #95AD27",
"Z 	c #D36D98",
"` 	c #D26D97",
" .	c #EAB5CB",
"..	c #F6E2EA",
"+.	c #95AE17",
"@.	c #A8BD2D",
"#.	c #EAEFD0",
"$.	c #96AE17",
"%.	c #DA729B",
"&.	c #DA719C",
"*.	c #F8E3EB",
"=.	c #F5D8E4",
"-.	c #EEBFD2",
";.	c #E8A6C0",
">.	c #A5BB12",
",.	c #A5BC12",
"'.	c #EDF1D0",
").	c #EDF1CF",
"!.	c #A5BB11",
"~.	c #E075A0",
"{.	c #E0759F",
"].	c #B5C80C",
"^.	c #F0F4CE",
"/.	c #B9CB1A",
"(.	c #E678A3",
"_.	c #C3D407",
":.	c #DBE56B",
"<.	c #F3F6CD",
"[.	c #E8EF9F",
"}.	c #E4EC8F",
"|.	c #C3D508",
"1.	c #C7D716",
"2.	c #EB7BA6",
"3.	c #EC7BA6",
"4.	c #EB7BA5",
"5.	c #CFDF03",
"6.	c #D2E012",
"7.	c #D8E600",
"8.	c #DAE70B",
"                                                                ",
"    .       .       .       .       .       .                   ",
"  . + .   . + .   . + .   . + .   . + .   . + .                 ",
". + + + . + + + . + + + . + + + . + + + . + + + .               ",
"  . + + + + + + + + + + + + + + + + + + + + + .                 ",
"    . + @ @ @ @ @ @ @ @ @ @ @ @ @ @ @ @ @ + .                   ",
"  . + + @ @ @ @ @ @ @ @ @ @ @ @ @ @ @ @ @ + + .                 ",
". + + + # # # $ $ $ % & * $ = # # # $ # = + + + .               ",
"  . + + - ; > , > > ' ) ) ! ! > - , ; ~ - + + .                 ",
"    . + { { { { ] ) ) ) ) ) ) ' { { { { { + .                   ",
"  . + + ^ ^ / ^ ( _ _ _ _ _ _ & : . / ^ / . + .   .       .     ",
". + + + < [ [ < } | 1 | | 1 | | . + . [ . + . + . + .   . + .   ",
"  . + + 2 2 2 2 3 3 | 3 3 3 3 . + + + . + + + . + + + . + + + . ",
"    . + 4 4 4 5 6 7 6 6 6 7 7 8 . + + + + + + + + + + + + + .   ",
"  . + + 9 9 9 0 a a a a a a a b 9 . + c c c c c c c c d + .     ",
". + + + e f f e a a a a a a a a . + + g g g g h i g g j + + .   ",
"  . + + k k l k 0 } m m m m 8 . + + + n o n p p p h o q + + + . ",
"    . + r r r r r r s s s s r r . + + t t t u u u u v w + + .   ",
"  . + + x x x x x x y z z z A B C . + D D E F F F F E w + .     ",
". + + + G G G G G H I C C C C G . + + J K L M M M N K O + + .   ",
"  . + + P Q P P P R S S S S S . + + + T U V W W W X T Y + + + . ",
"    . + Z Z Z `  ................ + + +.+.+.@.#.X $.+.Y + + .   ",
"  . + + %.&.%. .*.*.I =.=.R -.;.*.. + >.>.,.>.'.).!.!.@.+ .     ",
". + + + ~.{.~.{.{.~.{.~.~.~.{.{.. + + ].].].^.^.^.^.]./.+ + .   ",
"  . + + (.(.(.(.(.(.(.(.(.(.(.. + + + _._.:.<.[.[.}.|.1.+ + + . ",
"    . + 2.2.3.2.2.2.2.2.4.2.2.2.. + + 5.5.5.5.5.5.5.5.6.+ + .   ",
"  . + + + + + + + + + + + + + + + . + 7.7.7.7.7.7.7.7.8.+ .     ",
". + + + . + + + . + + + . + + + . + + + + + + + + + + + + + .   ",
"  . + .   . + .   . + .   . + . + + + . + + + . + + + . + + + . ",
"    .       .       .       .   . + .   . + .   . + .   . + .   ",
"                                  .       .       .       .     ",
"                                                                "};
