/* XPM */
static const char * stamps_16x16_xpm[] = {
"16 16 22 1",
" 	c None",
".	c #000000",
"+	c #FFFFFF",
"@	c #808080",
"#	c #800080",
"$	c #585858",
"%	c #A0A0A0",
"&	c #DCDCDC",
"*	c #FFC0C0",
"=	c #FFC0FF",
"-	c #C00000",
";	c #808000",
">	c #FFA858",
",	c #C0FFFF",
"'	c #C3C3C3",
")	c #FF0000",
"!	c #C000C0",
"~	c #C0FFC0",
"{	c #FFFFC0",
"]	c #C0C000",
"^	c #FFDCA8",
"/	c #FFFF00",
" ...........    ",
".+@+@+@+@+@+.   ",
".@#$$#$$#$$@.   ",
".+$$#@%#$$#+.   ",
".@##$&&&$#$@.   ",
".+$#%*&=....... ",
".@##&=&.+@+@+@+.",
".+-#@&&.@;$;$;@.",
".@###>=.+;;,';+.",
".+#)!*&.@;~{~'@.",
".@!!*&=.+]^&&]+.",
".+!-!#!.@]]{{]@.",
".@)!)!).+]~&{]+.",
".+@+@+@.@]/]]/@.",
" .......+@+@+@+.",
"        ....... "};
